<svg width="512" height="512" viewBox="0 0 64 64" fill="none" xmlns="http://www.w3.org/2000/svg">
  <!-- Background circle -->
  <circle cx="32" cy="32" r="30" fill="#FFF8E7"/>
  <circle cx="32" cy="32" r="30" stroke="#C45C26" stroke-width="2"/>

  <!-- Bread loaf body -->
  <path d="M14 38C14 38 14 30 20 26C26 22 38 22 44 26C50 30 50 38 50 38C50 42 46 46 32 46C18 46 14 42 14 38Z" fill="#FFE4C4" stroke="#C45C26" stroke-width="2"/>

  <!-- Bread top crust - dome -->
  <path d="M18 30C18 30 22 18 32 18C42 18 46 30 46 30" stroke="#8B3A14" stroke-width="2.5" stroke-linecap="round" fill="none"/>

  <!-- Score marks on bread -->
  <path d="M24 26L28 34" stroke="#C45C26" stroke-width="2" stroke-linecap="round"/>
  <path d="M32 24L32 34" stroke="#C45C26" stroke-width="2" stroke-linecap="round"/>
  <path d="M40 26L36 34" stroke="#C45C26" stroke-width="2" stroke-linecap="round"/>

  <!-- Steam lines -->
  <path d="M26 14C26 14 27 10 26 8" stroke="#E07B3C" stroke-width="1.5" stroke-linecap="round" opacity="0.6"/>
  <path d="M32 12C32 12 33 8 32 6" stroke="#E07B3C" stroke-width="1.5" stroke-linecap="round" opacity="0.6"/>
  <path d="M38 14C38 14 39 10 38 8" stroke="#E07B3C" stroke-width="1.5" stroke-linecap="round" opacity="0.6"/>
</svg>
